<svg xmlns="http://www.w3.org/2000/svg" viewBox="0 0 1260 366" role="img" aria-label="ActivaColours"><path d="M0.0 328.2 C0.1 287.0 -0.3 289.0 4.9 303.1 C10.3 317.7 21.0 331.5 30.9 336.5 C33.4 337.7 37.3 339.7 39.5 340.9 C41.6 342.0 44.1 343.0 45.0 343.0 C45.8 343.0 48.8 343.9 51.5 344.9 C64.9 350.0 97.3 350.4 112.6 345.6 C116.9 344.3 122.1 342.9 124.0 342.5 C125.9 342.1 129.1 340.8 131.0 339.6 C132.9 338.3 135.7 337.0 137.2 336.7 C138.6 336.3 141.2 334.9 142.8 333.5 C144.5 332.1 146.2 331.0 146.8 331.0 C147.4 331.0 149.7 329.4 152.0 327.5 C156.4 323.8 159.4 323.1 160.3 325.3 C160.6 326.1 161.1 329.2 161.5 332.4 C162.8 342.9 161.3 342.5 195.4 342.8 C216.2 343.0 225.6 342.8 227.1 342.0 C229.5 340.7 229.4 338.3 226.5 329.0 C225.6 326.0 224.4 321.0 224.0 318.0 C223.5 315.0 223.1 279.2 223.1 238.5 C223.0 197.8 222.5 161.3 222.0 157.5 C221.2 151.4 219.1 145.2 214.7 136.1 C213.0 132.8 204.1 123.9 197.3 118.8 C191.0 114.1 183.5 110.6 175.0 108.3 C172.0 107.5 166.3 106.0 162.4 104.9 C151.9 102.0 132.3 100.7 110.5 101.4 C93.3 101.9 90.2 102.3 77.7 105.5 C70.1 107.4 62.4 109.8 60.7 110.8 C58.9 111.9 56.0 113.0 54.1 113.4 C52.2 113.7 49.3 115.0 47.6 116.3 C45.9 117.5 43.2 119.2 41.6 120.0 C37.0 122.3 20.6 139.2 18.7 143.6 C17.7 145.7 15.8 149.6 14.4 152.2 C12.2 156.4 9.3 168.4 8.7 176.0 C8.3 180.6 11.0 181.0 41.5 181.0 C64.8 181.0 69.9 180.7 71.7 179.5 C73.0 178.6 74.9 174.9 76.4 170.2 C78.6 163.6 79.9 161.6 84.9 156.6 C88.4 153.2 92.1 150.5 94.1 150.0 C96.0 149.5 100.0 148.4 103.0 147.5 C110.5 145.4 128.8 145.5 133.8 147.6 C135.8 148.5 139.6 149.8 142.1 150.6 C145.9 151.7 147.6 153.1 151.1 157.8 L155.5 163.5L155.8 173.6 L156.2 183.6L152.6 187.9 C150.6 190.3 147.9 193.1 146.6 194.1 C143.5 196.5 114.5 202.6 102.0 203.5 C96.8 203.9 89.1 204.9 85.0 205.6 C80.9 206.4 73.0 207.8 67.5 208.6 C62.0 209.5 55.7 210.9 53.5 211.7 C51.3 212.5 47.1 214.0 44.2 215.1 C41.3 216.1 37.7 217.8 36.3 219.0 C34.9 220.1 32.9 221.0 32.0 221.0 C28.4 221.0 14.6 233.4 10.9 240.0 C9.8 241.9 8.3 244.6 7.5 246.0 C6.7 247.4 5.6 250.4 5.0 252.7 C4.4 254.9 3.1 257.9 2.0 259.2 C0.1 261.5 0.1 260.6 0.0 130.8 L0.0 0.0L630.0 0.0 L1260.0 0.0L1260.0 183.0 L1260.0 366.0L630.0 366.0 L0.0 366.0L0.0 328.2 Z M378.8 348.0 C385.0 347.4 392.6 346.1 395.8 345.1 C398.9 344.0 403.3 342.9 405.5 342.5 C407.7 342.2 410.9 341.0 412.6 340.1 C414.3 339.1 417.4 337.7 419.6 337.0 C421.7 336.3 424.4 335.0 425.5 334.0 C426.6 333.0 429.4 331.3 431.7 330.1 C436.6 327.7 450.8 313.9 456.7 305.9 C465.7 293.7 473.0 276.4 475.0 262.7 C475.9 255.9 476.0 253.6 475.1 252.7 C473.8 251.4 420.7 250.4 416.3 251.5 C414.7 251.9 413.8 253.2 413.0 256.3 C412.4 258.6 411.1 262.5 410.0 265.0 C409.0 267.5 407.6 271.3 406.9 273.5 C405.2 279.1 392.0 291.9 385.4 294.3 C369.2 300.3 360.3 300.6 346.9 295.6 C338.6 292.5 337.0 291.4 331.1 285.2 C323.4 277.2 319.5 271.2 318.1 264.9 C317.5 262.5 316.0 258.0 314.8 255.0 C312.7 249.9 312.6 247.9 312.5 226.5 L312.5 203.5L315.8 193.0 C317.7 187.2 319.8 181.4 320.5 180.0 C324.8 172.2 326.3 170.1 330.3 166.0 C339.9 156.2 349.2 151.9 362.0 151.2 C369.6 150.8 371.7 151.1 380.9 154.1 C392.6 157.8 397.7 161.3 403.4 169.8 C405.3 172.7 407.6 177.8 408.5 181.3 C409.5 185.3 410.9 188.3 412.6 189.8 C415.1 192.0 415.5 192.0 443.4 192.0 C468.6 192.0 471.9 191.8 473.1 190.3 C475.0 188.1 474.7 177.6 472.5 172.0 C471.6 169.5 470.1 165.0 469.2 162.0 C468.2 159.0 466.2 154.2 464.6 151.5 C461.5 146.3 452.2 135.2 446.1 129.4 C438.6 122.5 426.6 114.0 424.1 114.0 C423.5 114.0 420.6 112.8 417.8 111.4 C415.1 110.0 410.0 108.3 406.6 107.6 C403.3 106.8 397.4 105.3 393.5 104.0 C387.2 102.0 384.5 101.8 366.0 101.8 L345.5 101.8L330.8 105.8 C322.8 108.0 315.1 110.5 313.8 111.3 C312.6 112.1 310.4 113.1 309.0 113.5 C301.2 115.8 281.2 131.7 272.7 142.4 C266.0 150.8 258.1 164.0 257.4 168.2 C257.0 170.0 255.9 172.9 254.8 174.7 C253.8 176.4 251.3 184.3 249.3 192.2 C245.7 206.4 245.7 206.6 245.7 227.5 L245.7 248.5L249.4 262.0 C253.0 274.5 256.1 282.9 259.5 289.0 C260.3 290.4 261.8 293.2 263.0 295.3 C264.1 297.4 267.0 301.7 269.4 304.8 C275.6 312.9 294.2 330.0 296.8 330.0 C297.4 330.0 299.2 331.2 300.9 332.6 C302.6 334.0 306.1 335.8 308.7 336.6 C311.3 337.4 314.1 338.7 315.0 339.5 C315.9 340.3 321.7 342.1 328.0 343.5 C334.3 345.0 339.8 346.4 340.4 346.8 C341.6 347.5 353.3 348.6 362.0 348.8 C365.0 348.9 372.6 348.5 378.8 348.0 Z M1066.5 345.7 C1070.9 344.3 1076.1 342.9 1078.0 342.5 C1079.9 342.1 1083.1 340.8 1085.0 339.6 C1086.9 338.3 1089.7 337.0 1091.2 336.7 C1092.6 336.3 1095.2 334.9 1096.8 333.5 C1098.5 332.1 1100.2 331.0 1100.8 331.0 C1101.4 331.0 1103.7 329.4 1106.0 327.5 C1110.4 323.8 1113.4 323.1 1114.3 325.3 C1114.6 326.1 1115.1 329.2 1115.5 332.4 C1116.8 342.9 1115.3 342.5 1149.4 342.8 C1170.2 343.0 1179.6 342.8 1181.1 342.0 C1183.5 340.7 1183.4 338.3 1180.5 329.0 C1179.6 326.0 1178.4 321.0 1178.0 318.0 C1177.5 315.0 1177.1 279.2 1177.1 238.5 C1177.0 197.8 1176.5 161.3 1176.0 157.4 C1175.5 153.4 1174.2 148.3 1173.1 145.9 C1172.0 143.5 1170.6 140.1 1170.0 138.3 C1169.3 136.5 1166.2 132.4 1163.0 129.2 C1152.1 118.0 1142.1 111.8 1129.0 108.3 C1126.0 107.5 1120.3 106.0 1116.4 104.9 C1105.9 102.0 1086.3 100.7 1064.5 101.4 C1047.3 101.9 1044.2 102.3 1031.7 105.5 C1024.1 107.4 1016.4 109.8 1014.7 110.8 C1012.9 111.9 1010.0 113.0 1008.1 113.4 C1006.2 113.7 1003.3 115.0 1001.6 116.3 C999.9 117.5 997.2 119.2 995.6 120.0 C991.9 121.9 974.9 138.7 973.4 142.0 C972.7 143.4 970.8 147.4 969.1 151.0 C966.3 156.7 963.3 168.5 962.7 176.0 C962.3 180.6 965.0 181.0 995.5 181.0 C1018.8 181.0 1023.9 180.7 1025.7 179.5 C1027.0 178.6 1028.9 174.9 1030.4 170.2 C1032.6 163.6 1033.9 161.6 1038.9 156.6 C1042.4 153.2 1046.1 150.5 1048.1 150.0 C1050.0 149.5 1054.0 148.4 1057.0 147.5 C1064.5 145.4 1082.8 145.5 1087.8 147.6 C1089.8 148.5 1093.6 149.8 1096.1 150.6 C1099.9 151.7 1101.6 153.1 1105.1 157.8 L1109.5 163.5L1109.8 173.6 L1110.2 183.6L1106.6 187.9 C1104.6 190.3 1101.9 193.1 1100.6 194.1 C1097.5 196.5 1068.5 202.6 1056.0 203.5 C1050.8 203.9 1043.1 204.9 1039.0 205.6 C1034.9 206.4 1027.0 207.8 1021.5 208.6 C1016.0 209.5 1009.7 210.9 1007.5 211.7 C1005.3 212.5 1001.1 214.0 998.2 215.1 C995.3 216.1 991.7 217.8 990.3 219.0 C988.9 220.1 986.9 221.0 986.0 221.0 C985.0 221.0 982.3 222.6 980.0 224.5 C977.7 226.4 975.5 228.0 975.0 228.0 C974.1 228.0 967.1 236.7 963.3 242.5 C961.9 244.6 959.8 249.6 958.5 253.5 C951.4 275.4 953.2 294.3 964.5 315.2 C968.8 323.1 978.4 333.2 984.9 336.5 C987.4 337.7 991.3 339.7 993.5 340.9 C995.6 342.0 998.2 343.0 999.1 343.0 C1000.0 343.0 1002.5 343.7 1004.6 344.6 C1012.6 348.0 1021.8 349.0 1040.5 348.6 C1056.1 348.2 1059.6 347.8 1066.5 345.7 Z M625.5 340.6 L628.0 339.0L628.0 315.2 C628.0 298.1 627.7 291.1 626.8 290.2 C625.9 289.3 622.2 289.2 613.1 289.6 C599.7 290.3 590.8 288.8 586.6 285.1 C582.0 281.2 582.0 280.5 582.0 216.5 C582.0 176.6 582.4 155.2 583.0 153.9 C584.0 152.1 585.3 152.0 603.8 152.0 C620.1 152.0 623.9 151.7 625.8 150.4 C627.9 148.9 628.0 148.4 628.0 129.6 C628.0 112.8 627.8 110.1 626.3 108.9 C625.1 107.8 619.7 107.4 603.8 107.2 C587.5 107.0 582.8 106.6 582.4 105.5 C582.1 104.8 581.8 89.6 581.7 71.7 C581.5 46.5 581.2 38.8 580.2 37.8 C579.2 36.8 571.8 36.4 548.6 36.2 C521.1 35.9 518.2 36.1 516.9 37.6 C515.8 39.0 515.5 45.5 515.3 71.8 C515.2 89.6 514.9 104.8 514.6 105.5 C514.2 106.6 510.0 106.9 496.7 107.2 C483.8 107.4 478.9 107.9 477.7 108.9 C476.2 110.1 476.0 112.8 476.0 129.6 C476.0 153.8 474.3 152.0 496.5 152.0 C507.7 152.0 513.0 152.4 513.8 153.2 C514.7 154.1 515.0 171.0 515.0 222.9 C515.0 260.7 515.5 294.6 516.0 298.5 C516.6 303.0 518.1 308.0 520.4 312.6 C524.3 320.4 531.8 329.5 535.3 330.5 C536.5 330.9 539.1 332.2 541.0 333.5 C546.2 337.0 559.4 341.2 568.0 342.1 C572.1 342.5 586.2 342.7 599.3 342.5 C619.1 342.2 623.5 341.9 625.5 340.6 Z M713.4 341.4 C714.8 340.0 715.0 328.1 715.0 225.0 C715.0 120.7 714.9 110.0 713.4 108.5 C712.0 107.1 708.3 107.0 681.5 107.2 C657.7 107.4 651.0 107.8 649.6 108.9 C648.1 110.1 648.0 119.2 648.2 225.3 L648.5 340.4L651.0 341.7 C652.8 342.6 661.2 343.0 682.7 343.0 C707.9 343.0 712.1 342.8 713.4 341.4 Z M880.6 342.2 C882.1 341.3 886.3 331.2 888.3 324.0 C889.2 321.0 890.8 316.0 891.9 313.0 C894.1 306.9 896.0 301.2 899.6 290.0 C904.5 274.8 907.3 266.3 909.5 260.5 C910.8 257.2 912.1 252.9 912.5 251.0 C912.9 249.1 914.3 245.7 915.5 243.5 C916.8 241.3 918.1 237.5 918.5 235.0 C918.9 232.5 920.3 228.5 921.5 226.0 C922.7 223.5 924.1 219.5 924.5 217.0 C924.9 214.5 926.3 210.5 927.5 208.0 C928.7 205.5 930.1 201.5 930.5 199.0 C930.9 196.5 932.3 192.5 933.5 190.0 C934.7 187.5 936.1 183.5 936.5 181.0 C936.9 178.5 938.3 174.5 939.5 172.0 C940.7 169.5 942.1 165.5 942.5 163.0 C942.9 160.5 944.3 156.5 945.5 154.0 C946.7 151.5 948.1 147.5 948.5 145.0 C948.9 142.5 950.2 138.7 951.3 136.5 C952.4 134.3 953.9 129.6 954.7 126.2 C955.4 122.7 956.9 118.7 958.0 117.3 C960.6 114.0 960.6 109.4 958.1 108.0 C955.4 106.6 902.3 106.6 898.2 108.1 C895.7 109.0 894.8 110.0 893.9 113.3 C893.3 115.6 892.0 119.5 891.0 122.0 C890.0 124.5 888.9 128.1 888.5 130.0 C888.2 131.9 886.6 137.3 885.0 142.0 C883.5 146.7 881.6 153.0 881.0 156.0 C880.3 159.0 878.9 163.1 878.0 165.0 C877.0 166.9 875.9 170.5 875.5 173.0 C875.1 175.5 874.0 179.1 873.0 181.0 C872.1 182.9 871.0 186.3 870.6 188.5 C869.9 192.3 867.0 201.8 861.3 219.0 C860.0 223.1 858.2 229.4 857.3 233.0 C856.5 236.6 855.0 241.1 854.0 243.0 C853.1 244.9 852.0 248.3 851.6 250.5 C850.1 259.3 849.9 260.0 848.0 260.0 C845.7 260.0 842.4 253.1 840.5 244.5 C839.8 241.1 838.5 236.9 837.6 235.1 C836.6 233.3 835.2 228.8 834.4 225.0 C833.7 221.3 832.2 216.2 831.1 213.8 C830.1 211.4 828.7 207.0 828.1 204.1 C827.5 201.1 826.1 196.7 825.0 194.4 C824.0 192.0 822.8 187.9 822.4 185.3 C822.0 182.6 820.7 178.5 819.5 176.0 C818.3 173.5 816.9 169.3 816.5 166.5 C816.1 163.8 814.9 159.9 813.9 157.8 C812.8 155.7 811.3 151.0 810.6 147.2 C809.8 143.5 808.3 138.4 807.2 135.9 C806.1 133.5 804.8 129.1 804.1 126.2 C802.8 120.0 798.3 108.8 796.6 107.8 C794.8 106.6 735.2 106.8 732.9 108.0 C730.3 109.5 730.5 112.5 733.9 121.1 C736.7 128.3 739.5 136.7 744.4 152.0 C745.7 156.1 748.4 164.0 750.5 169.5 C752.5 175.0 755.0 182.2 756.0 185.5 C757.8 191.7 760.5 199.7 764.6 211.0 C765.9 214.6 767.6 219.8 768.4 222.5 C769.2 225.3 771.2 231.3 773.0 236.0 C774.8 240.7 777.1 247.2 778.2 250.5 C779.2 253.8 780.6 257.9 781.2 259.5 C781.8 261.1 783.1 265.2 784.2 268.5 C785.2 271.8 786.6 275.9 787.2 277.5 C787.8 279.1 789.1 283.2 790.2 286.5 C791.2 289.8 792.6 293.9 793.2 295.5 C793.8 297.1 795.1 301.2 796.2 304.5 C797.3 307.8 799.2 313.0 800.6 316.0 C801.9 319.0 803.3 323.3 803.6 325.4 C804.5 330.4 809.5 341.6 811.2 342.3 C813.2 343.1 879.4 343.1 880.6 342.2 Z M91.0 302.5 C88.5 301.8 84.7 300.7 82.5 300.0 C77.4 298.5 75.6 296.9 70.8 289.5 L66.8 283.5L67.2 274.0 C67.5 265.0 67.7 264.2 71.3 258.8 C73.3 255.7 75.9 252.9 77.0 252.5 C78.1 252.2 80.2 250.8 81.8 249.6 C83.3 248.3 86.1 246.9 88.0 246.5 C89.9 246.1 94.7 244.7 98.5 243.5 C102.3 242.2 109.3 240.9 114.0 240.5 C118.7 240.2 124.3 239.5 126.5 239.0 C128.7 238.5 134.1 237.3 138.5 236.4 C142.9 235.5 148.1 233.9 150.2 232.9 C156.0 230.0 156.3 231.0 155.8 252.2 C155.4 270.4 155.4 270.5 152.1 278.0 C147.4 288.5 137.6 297.8 129.0 299.8 C126.5 300.4 122.0 301.6 119.0 302.5 C112.4 304.3 97.3 304.4 91.0 302.5 Z M1045.0 302.5 C1042.5 301.8 1038.7 300.7 1036.5 300.0 C1031.4 298.5 1029.6 296.9 1024.8 289.5 L1020.8 283.5L1021.2 274.0 C1021.5 265.0 1021.7 264.2 1025.3 258.8 C1027.3 255.7 1029.9 252.9 1031.0 252.5 C1032.1 252.2 1034.2 250.8 1035.8 249.6 C1037.3 248.3 1040.1 246.9 1042.0 246.5 C1043.9 246.1 1048.7 244.7 1052.5 243.5 C1056.3 242.2 1063.3 240.9 1068.0 240.5 C1072.7 240.2 1078.3 239.5 1080.5 239.0 C1082.7 238.5 1088.1 237.3 1092.5 236.4 C1096.9 235.5 1102.1 233.9 1104.2 232.9 C1110.0 230.0 1110.3 231.0 1109.8 252.2 C1109.4 270.4 1109.4 270.5 1106.1 278.0 C1101.4 288.5 1091.6 297.8 1083.0 299.8 C1080.5 300.4 1076.0 301.6 1073.0 302.5 C1066.4 304.3 1051.3 304.4 1045.0 302.5 Z M1225.6 153.9 C1228.8 152.2 1233.8 148.5 1236.7 145.7 C1243.1 139.5 1244.6 134.3 1243.5 122.7 C1243.0 116.7 1242.2 114.2 1239.9 110.8 C1238.3 108.4 1237.0 106.0 1237.0 105.4 C1237.0 103.8 1226.8 94.4 1224.2 93.6 C1223.0 93.2 1222.0 92.5 1222.0 92.1 C1222.0 89.4 1208.1 87.9 1202.7 89.9 C1199.4 91.2 1187.2 103.5 1184.1 108.5 C1180.9 113.8 1179.1 127.9 1180.8 135.6 C1181.9 141.2 1185.7 146.1 1193.0 151.4 C1199.4 156.1 1202.1 156.9 1211.1 157.0 C1218.8 157.0 1220.3 156.7 1225.6 153.9 Z M1203.5 147.9 C1203.1 147.3 1203.7 145.9 1204.8 144.7 C1206.1 143.3 1207.0 140.8 1207.2 138.0 C1207.6 131.7 1209.4 132.2 1215.3 140.4 C1219.1 145.7 1219.9 147.5 1218.8 148.1 C1216.9 149.4 1204.2 149.2 1203.5 147.9 Z M1194.8 141.9 C1193.9 141.4 1192.2 139.5 1191.1 137.6 C1187.5 131.8 1188.8 117.2 1193.4 112.1 C1194.3 111.1 1195.0 109.3 1195.0 108.1 C1195.0 105.3 1202.5 98.3 1206.3 97.4 C1215.6 95.4 1224.9 101.2 1230.7 112.5 C1235.5 121.8 1236.2 129.8 1233.0 136.4 C1230.3 142.0 1227.1 144.2 1225.5 141.5 C1225.0 140.5 1223.5 138.5 1222.2 137.0 C1219.4 133.4 1219.4 133.0 1223.0 128.5 C1227.9 122.4 1226.7 114.1 1220.4 109.1 C1216.4 106.0 1204.2 106.1 1200.5 109.2 C1198.0 111.5 1198.0 111.7 1197.9 126.7 C1197.9 135.1 1197.6 142.2 1197.2 142.4 C1196.8 142.6 1195.7 142.4 1194.8 141.9 Z M1208.1 124.1 C1207.3 123.6 1206.7 121.7 1206.7 120.0 C1206.7 116.4 1208.2 115.0 1212.3 115.0 C1215.9 115.0 1217.9 118.8 1216.2 122.5 C1215.0 125.1 1211.0 125.9 1208.1 124.1 Z M713.1 70.3 C714.2 69.1 714.6 63.2 714.8 44.5 C715.1 23.2 714.9 20.0 713.5 18.6 C712.1 17.2 708.3 17.0 682.7 17.0 C661.2 17.0 652.8 17.4 651.0 18.3 L648.5 19.6L648.2 41.5 C647.9 66.7 648.2 69.7 651.3 71.0 C652.5 71.5 666.6 71.9 682.6 71.9 C708.5 72.0 711.9 71.8 713.1 70.3 Z" fill="#FFFFFF" fill-rule="evenodd"/></svg>